<svg xmlns="http://www.w3.org/2000/svg" version="1.1" xmlns:xlink="http://www.w3.org/1999/xlink" xmlns:svgjs="http://svgjs.dev/svgjs" width="1500" height="1500" viewBox="0 0 1500 1500"><rect width="1500" height="1500" fill="#ffffff"></rect><g transform="matrix(0.6666666666666666,0,0,0.6666666666666666,250,250)"><svg viewBox="0 0 280 280" data-background-color="#ffffff" preserveAspectRatio="xMidYMid meet" height="1500" width="1500" xmlns="http://www.w3.org/2000/svg" xmlns:xlink="http://www.w3.org/1999/xlink"><g id="tight-bounds" transform="matrix(1,0,0,1,0,0)"><svg viewBox="0 0 280 280" height="280" width="280"><g><svg viewBox="0 0 280 280" height="280" width="280"><g><svg viewBox="0 0 280 280" height="280" width="280"><g id="textblocktransform"><svg viewBox="0 0 280 280" height="280" width="280" id="textblock"><g><svg viewBox="0 0 280 280" height="280" width="280"><g transform="matrix(1,0,0,1,102.32044486118366,90.50252531694167)"><svg viewBox="0 0 75.3591102776327 98.99494936611666" height="98.99494936611666" width="75.3591102776327"><g id="icon-0"><svg xmlns="http://www.w3.org/2000/svg" xmlns:xlink="http://www.w3.org/1999/xlink" version="1.1" x="0" y="0" viewBox="14.5 3.3 71.1 93.4" enable-background="new 0 0 100 100" xml:space="preserve" height="98.99494936611666" width="75.3591102776327" class="icon-jxe-0" data-fill-palette-color="accent" id="jxe-0"><path d="M52.1 84.4V92.5H64.3C65.5 92.5 66.4 93.5 66.4 94.6S65.4 96.7 64.3 96.7H35.7C34.5 96.7 33.6 95.7 33.6 94.6S34.6 92.5 35.7 92.5H47.9V84.4H18.7C16.4 84.4 14.5 82.5 14.5 80.2V39.9C14.5 37.6 16.4 35.7 18.7 35.7H33C34.2 35.7 35.1 36.7 35.1 37.8S34.1 39.9 33 39.9H18.7V80.2H81.3V39.9H67.1C65.9 39.9 65 38.9 65 37.8S66 35.7 67.1 35.7H81.4C83.7 35.7 85.6 37.6 85.6 39.9V80.2C85.6 82.5 83.7 84.4 81.4 84.4zM50.2 3.3C53.7 3.4 56.5 6.3 56.4 9.8 56.3 12.5 54.6 14.8 52.2 15.6V68.5C52.2 69.7 51.2 70.6 50.1 70.6 48.9 70.6 48 69.6 48 68.5V15.6C47.1 15.3 46.2 14.7 45.5 14 44.3 12.8 43.7 11.2 43.7 9.5 43.8 6.1 46.6 3.3 50.1 3.3zM50.1 7.5C48.9 7.5 48 8.4 47.9 9.6 47.9 10.2 48.1 10.7 48.5 11.1S49.4 11.7 50 11.8H50.1C51.2 11.8 52.2 10.9 52.2 9.7 52.1 8.5 51.2 7.6 50.1 7.5M57.2 58.6V25.9C57.2 22.1 60.3 19 64.1 19H68.9C69.8 16.5 72.1 14.8 74.9 14.8 78.4 14.8 81.3 17.7 81.3 21.2S78.4 27.6 74.9 27.6C72.1 27.6 69.8 25.8 68.9 23.4H64.1C62.6 23.4 61.5 24.6 61.5 26V58.7C61.5 59.9 60.5 60.8 59.4 60.8 58.2 60.8 57.2 59.8 57.2 58.6M72.8 21.2C72.8 22.4 73.7 23.3 74.9 23.3S77 22.4 77 21.2 76.1 19 74.9 19 72.8 20 72.8 21.2M38.5 58.6V25.9C38.5 24.4 37.3 23.3 35.9 23.3H31.1C30.2 25.8 27.9 27.5 25.1 27.5 21.6 27.5 18.7 24.6 18.7 21.1S21.6 14.7 25.1 14.7C27.9 14.7 30.2 16.5 31.1 18.9H35.9C39.7 18.9 42.8 22 42.8 25.8V58.5C42.8 59.7 41.8 60.6 40.7 60.6S38.5 59.8 38.5 58.6M27.2 21.2C27.2 20 26.3 19.1 25.1 19.1S23 20 23 21.2 23.9 23.3 25.1 23.3 27.2 22.3 27.2 21.2" fill="#001f3f" data-fill-palette-color="accent"></path></svg></g></svg></g><g id="text-0"><path d="M26.425 87.29l0.232-0.049c1.975 1.181 4.059 2.298 6.25 3.353v0l0.171 0.285c-2.098 5.45-3.57 9.393-4.415 11.83v0c-0.674 1.943-1.176 3.816-1.506 5.619v0l-1.725-0.868c0.249-1.235 0.218-2.151-0.093-2.747-0.306-0.587-1.024-1.077-2.152-1.468v0l-16.529-5.775c-0.84-0.291-1.438-0.391-1.793-0.299-0.357 0.099-0.636 0.437-0.836 1.014v0l-0.387 1.363-0.18 0.024-1.638-0.87c1.006-2.653 1.677-4.464 2.013-5.432v0c1.085-3.129 1.896-5.57 2.432-7.324 0.53-1.756 0.928-3.309 1.196-4.66v0l0.271-0.035c1.913 1.195 3.988 2.252 6.226 3.172v0l-0.503 1.948-1.666-0.664c-0.917-0.318-1.592-0.423-2.024-0.314-0.435 0.115-0.85 0.546-1.246 1.292-0.389 0.749-0.925 2.107-1.607 4.076v0c-0.318 0.917-0.511 1.557-0.58 1.921-0.067 0.358-0.018 0.622 0.145 0.794 0.155 0.176 0.49 0.368 1.007 0.575v0l7.539 2.959 1.443-4.035c0.356-1.026 0.767-2.679 1.235-4.959v0l0.246-0.087 2.137 1.355c-1.095 2.888-1.774 4.711-2.036 5.468v0c-0.3 0.866-0.558 1.911-0.775 3.135v0l7.468 2.762c0.763 0.265 1.319 0.382 1.666 0.352 0.346-0.024 0.64-0.22 0.883-0.588 0.251-0.373 0.55-1.059 0.897-2.059v0c0.763-2.199 1.2-3.804 1.314-4.813 0.111-1.003-0.079-1.812-0.57-2.428-0.493-0.609-1.465-1.284-2.918-2.025v0z" fill="#001f3f" data-fill-palette-color="primary"></path><path d="M42.6 75.805c-7.919-1.769-13.735-3.023-17.449-3.762v0l-0.116 0.18c1.059 0.812 3.039 2.326 5.938 4.541 2.905 2.219 4.509 3.427 4.811 3.622v0c0.302 0.195 0.565 0.263 0.789 0.205 0.214-0.056 0.427-0.249 0.64-0.58v0l0.722-1.121 0.156 0.003 1.235 1.147c-0.136 0.211-0.412 0.602-0.829 1.173-0.42 0.577-0.818 1.156-1.193 1.739v0c-0.301 0.468-0.596 0.988-0.885 1.561-0.289 0.573-0.472 0.951-0.55 1.135v0l-1.344-1.072c0.316-0.652 0.411-1.201 0.285-1.645-0.125-0.444-0.519-0.948-1.181-1.512v0c-1.468-1.205-3.537-2.893-6.206-5.065-2.667-2.163-4.178-3.358-4.531-3.587v0c-0.468-0.301-0.931-0.341-1.388-0.119-0.454 0.216-0.991 0.754-1.61 1.614v0l-0.237-0.007-0.996-0.993c0.188-0.242 0.509-0.677 0.963-1.305 0.457-0.634 0.88-1.253 1.27-1.858v0c0.335-0.519 0.628-1 0.881-1.443 0.257-0.448 0.419-0.751 0.488-0.908v0c2.622 0.705 5.098 1.335 7.428 1.892 2.335 0.56 4.208 0.988 5.616 1.283 1.411 0.304 2.295 0.486 2.652 0.546v0l0.11-0.171c-0.485-0.676-1.64-2.24-3.467-4.693-1.826-2.453-3.907-5.174-6.243-8.165v0c0.065-0.152 0.176-0.335 0.331-0.55 0.155-0.215 0.3-0.428 0.436-0.639v0c0.188-0.242 0.44-0.608 0.756-1.099v0c0.239-0.371 0.565-0.927 0.98-1.67 0.414-0.742 0.685-1.238 0.812-1.487v0l0.147-0.002 1.113 0.96c-0.429 0.878-0.641 1.553-0.637 2.023 0.013 0.469 0.253 0.854 0.721 1.155v0c0.468 0.301 2.004 1.175 4.609 2.619 2.601 1.45 4.831 2.657 6.689 3.621v0c1.129 0.566 1.916 0.86 2.363 0.881 0.446 0.021 0.813-0.191 1.1-0.636v0l0.484-0.826 0.147-0.002 1.243 1.152c-0.118 0.183-0.362 0.537-0.734 1.065-0.368 0.522-0.747 1.085-1.138 1.689v0c-0.393 0.61-0.804 1.323-1.231 2.137-0.422 0.818-0.648 1.25-0.678 1.295v0l-1.349-1.063c0.319-0.658 0.459-1.182 0.419-1.571-0.046-0.393-0.28-0.725-0.702-0.997v0c-0.422-0.272-2.17-1.225-5.242-2.858-3.079-1.637-5.172-2.748-6.281-3.333v0l-0.116 0.179c2.639 3.647 6.123 8.37 10.45 14.171v0z" fill="#001f3f" data-fill-palette-color="primary"></path><path d="M60.175 54.118l-0.243-0.063-0.938-1.174c0.788-0.865 1.268-1.498 1.44-1.897 0.172-0.399 0.125-0.739-0.143-1.018v0c-0.305-0.319-0.699-0.594-1.183-0.826v0l-2.937-1.629c-0.421 0.365-1.265 1.152-2.53 2.361v0c-0.584 0.558-1.391 1.442-2.422 2.652v0l1.284 3.039c0.298 0.597 0.497 0.947 0.595 1.051v0c0.305 0.319 0.635 0.444 0.993 0.375 0.357-0.069 0.788-0.344 1.293-0.827v0l1.295-1.238 0.201 0.033 0.914 1.31c-0.22 0.173-0.707 0.582-1.461 1.227-0.749 0.641-1.464 1.287-2.147 1.938v0c-0.643 0.614-1.212 1.177-1.708 1.689-0.492 0.507-0.828 0.848-1.01 1.021v0l-0.998-1.412c0.385-0.481 0.588-0.971 0.61-1.47 0.021-0.499-0.127-1.174-0.444-2.026v0l-6.702-16.489 1.769-2.436 0.234-0.168c0.08 0.083 2.055 1.232 5.927 3.447 3.871 2.224 7.135 4.005 9.792 5.342v0c0.759 0.392 1.406 0.553 1.94 0.483 0.529-0.065 1.166-0.396 1.909-0.993v0l0.179 0.069 0.879 1.229c-0.201 0.192-0.581 0.536-1.139 1.033-0.563 0.501-1.115 1.009-1.655 1.525v0c-0.824 0.788-1.581 1.567-2.271 2.338-0.68 0.772-1.121 1.273-1.323 1.504zM50.347 50.654l2.053-1.962c0.702-0.67 1.393-1.411 2.074-2.221v0l-7.416-4.092-0.214 0.204z" fill="#001f3f" data-fill-palette-color="primary"></path><path d="M80.577 31.724l-6.549-10.106c-0.495-0.771-1.057-0.955-1.684-0.552v0l-1.054 0.677-0.162-0.102-0.626-1.521c0.22-0.109 0.632-0.341 1.235-0.696 0.597-0.351 1.201-0.723 1.812-1.115v0c0.514-0.33 1.072-0.729 1.675-1.197 0.609-0.471 0.998-0.782 1.169-0.931v0l0.778 1.532c-0.617 0.533-0.985 1.028-1.104 1.483-0.119 0.455-0.017 0.959 0.304 1.511v0l9.265 15.354-1.123 1.265c-4.308-1.823-8.594-3.563-12.86-5.22-4.265-1.657-6.382-2.459-6.348-2.408v0l-0.18 0.116 6.717 10.688c0.286 0.445 0.554 0.705 0.802 0.779 0.24 0.072 0.525 0.002 0.857-0.211v0l1.374-0.931 0.183 0.04 0.614 1.578c-0.226 0.113-0.655 0.356-1.286 0.729-0.637 0.377-1.296 0.783-1.976 1.219v0c-0.537 0.345-1.09 0.74-1.658 1.186-0.574 0.449-0.944 0.747-1.108 0.893v0l-0.753-1.549c0.535-0.448 0.859-0.898 0.973-1.35 0.108-0.448 0-0.948-0.322-1.499v0l-7.044-11.821c-0.374-0.583-0.804-0.875-1.29-0.878-0.48-0.006-1.238 0.238-2.274 0.735v0l-0.247-0.083-0.525-1.345c0.203-0.098 0.578-0.299 1.126-0.602 0.547-0.303 1.092-0.629 1.635-0.977v0c0.514-0.33 0.961-0.633 1.34-0.909 0.385-0.279 0.627-0.467 0.727-0.563v0c3.682 1.564 7.513 3.116 11.494 4.657 3.972 1.539 5.943 2.285 5.913 2.239v0z" fill="#001f3f" data-fill-palette-color="primary"></path><path d="M100.387 29.63c-1.777 0.655-3.494 0.843-5.152 0.564-1.658-0.279-3.12-0.998-4.386-2.159-1.273-1.158-2.256-2.677-2.948-4.555v0c-0.749-2.031-0.962-4.032-0.639-6.003 0.329-1.973 1.122-3.715 2.38-5.227 1.262-1.521 2.883-2.647 4.864-3.377v0c1.802-0.664 3.538-0.859 5.209-0.585 1.67 0.274 3.146 0.981 4.427 2.122 1.275 1.143 2.258 2.654 2.95 4.533v0c0.749 2.031 0.962 4.032 0.639 6.002-0.323 1.97-1.126 3.724-2.411 5.261-1.283 1.543-2.927 2.684-4.933 3.424zM100.629 27.403c1.904-0.702 3.189-1.953 3.857-3.754 0.667-1.801 0.583-3.835-0.253-6.101v0c-0.634-1.719-1.471-3.128-2.512-4.228-1.039-1.093-2.205-1.802-3.497-2.128-1.286-0.329-2.607-0.244-3.963 0.256v0c-1.853 0.683-3.096 1.911-3.73 3.685-0.634 1.774-0.533 3.795 0.303 6.062v0c0.636 1.726 1.467 3.137 2.493 4.234 1.029 1.104 2.175 1.831 3.441 2.182 1.269 0.342 2.556 0.273 3.861-0.208z" fill="#001f3f" data-fill-palette-color="primary"></path><path d="M115.674 24.909l-0.063-1.762c0.994-0.274 1.638-0.631 1.933-1.07 0.295-0.438 0.368-1.123 0.221-2.055v0l-2.018-13.058c-0.109-0.69-0.266-1.136-0.47-1.337-0.205-0.208-0.552-0.273-1.041-0.196v0l-1.11 0.217-0.107-0.158 0.004-1.598c0.328-0.052 0.974-0.141 1.937-0.266 0.963-0.125 2.007-0.277 3.133-0.456v0c4.585-0.727 7.953-1.388 10.106-1.983v0l0.164 0.191c-0.006 0.31-0.021 1.013-0.047 2.11-0.024 1.103 0.021 2.278 0.136 3.524v0l-1.954 0.485c-0.018-0.114-0.031-0.304-0.039-0.571-0.014-0.259-0.042-0.526-0.085-0.801v0c-0.114-0.717-0.297-1.203-0.551-1.459-0.253-0.255-0.709-0.379-1.368-0.37-0.659 0.001-1.787 0.129-3.382 0.381v0c-0.737 0.117-1.24 0.221-1.507 0.311-0.268 0.084-0.431 0.206-0.488 0.366-0.063 0.168-0.075 0.459-0.037 0.872v0l0.686 5.889 3.375-0.493c0.496-0.079 1.215-0.244 2.157-0.497 0.95-0.247 1.574-0.408 1.872-0.482v0l0.193 0.175-0.153 2.22c-0.302 0.048-0.9 0.129-1.796 0.244-0.896 0.114-1.84 0.25-2.832 0.407v0c-0.764 0.121-1.618 0.329-2.561 0.622v0c0.25 2.097 0.508 3.984 0.774 5.66v0c0.1 0.63 0.22 1.061 0.359 1.293 0.132 0.226 0.376 0.356 0.732 0.389 0.355 0.026 0.931-0.024 1.728-0.15v0c1.783-0.283 3.047-0.569 3.791-0.859 0.739-0.282 1.225-0.703 1.459-1.262 0.241-0.56 0.358-1.472 0.35-2.735v0l1.784-0.448 0.203 0.174c-0.039 0.315-0.071 1.045-0.096 2.19-0.031 1.146-0.005 2.33 0.079 3.554v0l-0.22 0.241c-0.742 0.09-2.283 0.293-4.623 0.609-2.348 0.317-4.249 0.591-5.704 0.822v0c-1.119 0.177-2.154 0.39-3.104 0.636-0.943 0.252-1.549 0.414-1.82 0.484z" fill="#001f3f" data-fill-palette-color="primary"></path><path d="M137.824 22.385l0.288-1.745c0.892-0.12 1.503-0.362 1.831-0.727 0.328-0.365 0.504-1.019 0.528-1.962v0l0.386-13.208c0.018-0.699-0.055-1.166-0.22-1.4-0.164-0.242-0.493-0.369-0.988-0.382v0l-1.13 0.012-0.118-0.176 0.294-1.571c0.136 0.003 0.549 0.027 1.241 0.072 0.698 0.045 1.631 0.082 2.797 0.112v0c0.611 0.015 1.368-0.006 2.272-0.065 0.905-0.065 1.496-0.108 1.776-0.128v0l-0.218 1.746c-0.749 0.069-1.278 0.188-1.587 0.357-0.31 0.175-0.496 0.402-0.557 0.678-0.068 0.277-0.154 0.845-0.257 1.705v0c-0.372 3.711-0.616 7.832-0.73 12.363v0c-0.018 0.692 0.034 1.199 0.155 1.522 0.114 0.322 0.356 0.545 0.726 0.67 0.377 0.118 0.966 0.187 1.767 0.207v0c1.336 0.034 2.32-0.053 2.949-0.261 0.63-0.208 1.112-0.634 1.448-1.277 0.335-0.643 0.646-1.671 0.933-3.082v0l1.837-0.157 0.126 0.247c-0.07 0.365-0.224 1.189-0.46 2.473-0.243 1.284-0.467 2.632-0.672 4.046v0l-0.21 0.249c-0.637-0.043-1.989-0.135-4.056-0.275-2.067-0.134-3.81-0.219-5.228-0.255v0c-1.113-0.028-2.148-0.007-3.107 0.064-0.959 0.078-1.565 0.127-1.816 0.148z" fill="#001f3f" data-fill-palette-color="primary"></path><path d="M184.695 31.543c-0.66-0.209-1.261-0.773-1.802-1.693-0.537-0.911-0.941-2.05-1.212-3.417v0l-1.805-9.062-3.299-1.046-1.993 5.883c-0.32 1.009-0.481 1.752-0.482 2.228-0.01 0.481 0.146 0.854 0.467 1.12 0.33 0.261 0.945 0.534 1.844 0.82v0l0.028 0.179-0.888 1.556c-0.309-0.126-0.935-0.353-1.877-0.681-0.949-0.329-1.938-0.657-2.967-0.983v0c-0.932-0.295-1.757-0.543-2.477-0.743-0.726-0.202-1.213-0.328-1.461-0.377v0l0.925-1.672c0.88 0.165 1.564 0.222 2.05 0.169 0.48-0.054 0.865-0.26 1.157-0.616 0.284-0.358 0.553-0.935 0.805-1.731v0l5.33-16.678c0.269-0.847 0.352-1.448 0.25-1.8-0.108-0.355-0.453-0.624-1.036-0.809v0c-0.265-0.084-0.535-0.155-0.808-0.213-0.273-0.058-0.462-0.104-0.565-0.137v0l-0.029-0.179 0.826-1.661c0.309 0.126 0.896 0.341 1.761 0.644 0.872 0.305 1.744 0.596 2.617 0.872v0c0.899 0.285 1.85 0.565 2.852 0.84 1.009 0.277 1.701 0.461 2.078 0.552v0c2.465 0.781 4.236 1.955 5.313 3.521 1.077 1.566 1.31 3.313 0.699 5.241v0c-0.504 1.591-1.475 2.889-2.911 3.893-1.44 0.996-3.223 1.623-5.349 1.882v0l2.183 8.306c0.368 1.512 0.836 2.629 1.405 3.35 0.575 0.723 1.39 1.252 2.444 1.586v0l0.116 0.208-0.67 1.272zM181.328 15.824c-0.025 0.078 0.428 0.032 1.356-0.136 0.931-0.175 1.852-0.598 2.763-1.271 0.911-0.672 1.585-1.697 2.022-3.075v0c1.107-3.493-0.762-6.008-5.607-7.544v0c-0.265-0.084-0.462-0.082-0.589 0.005-0.127 0.088-0.267 0.314-0.418 0.679v0c-1.517 3.976-2.679 7.192-3.486 9.649v0z" fill="#001f3f" data-fill-palette-color="primary"></path><path d="M199.368 38.827l-0.008-0.251 0.86-1.232c1.053 0.511 1.795 0.793 2.227 0.845 0.432 0.052 0.744-0.089 0.936-0.424v0c0.22-0.382 0.372-0.839 0.458-1.369v0l0.733-3.278c-0.469-0.301-1.463-0.887-2.981-1.759v0c-0.7-0.402-1.776-0.927-3.229-1.573v0l-2.551 2.091c-0.488 0.455-0.768 0.744-0.84 0.868v0c-0.22 0.382-0.246 0.735-0.079 1.058 0.167 0.323 0.553 0.658 1.159 1.006v0l1.554 0.893 0.024 0.202-0.997 1.246c-0.228-0.162-0.758-0.514-1.59-1.054-0.826-0.537-1.648-1.041-2.466-1.511v0c-0.771-0.443-1.472-0.83-2.104-1.161-0.625-0.328-1.047-0.555-1.264-0.68v0l1.072-1.356c0.57 0.234 1.097 0.29 1.582 0.169 0.484-0.121 1.09-0.454 1.818-0.998v0l13.921-11.091 2.837 1.008 0.227 0.177c-0.057 0.1-0.601 2.32-1.63 6.659-1.039 4.342-1.824 7.976-2.355 10.904v0c-0.161 0.839-0.133 1.505 0.085 1.997 0.212 0.49 0.709 1.006 1.492 1.55v0l-0.016 0.191-0.93 1.191c-0.241-0.139-0.679-0.406-1.313-0.801-0.64-0.399-1.283-0.784-1.93-1.156v0c-0.989-0.568-1.95-1.074-2.886-1.517-0.932-0.434-1.538-0.715-1.816-0.844zM199.912 28.421l2.462 1.414c0.841 0.483 1.747 0.937 2.717 1.362v0l1.828-8.271-0.256-0.147z" fill="#001f3f" data-fill-palette-color="primary"></path><path d="M210.05 45.642l1.251-1.186c0.938 0.516 1.659 0.739 2.163 0.671 0.504-0.069 1.056-0.467 1.655-1.196v0l8.429-10.176c0.444-0.54 0.673-0.953 0.689-1.239 0.02-0.291-0.162-0.594-0.545-0.908v0l-0.899-0.686 0.047-0.186 1.199-1.057c0.257 0.211 0.752 0.635 1.484 1.272 0.733 0.637 1.539 1.318 2.42 2.042v0c3.329 2.736 5.878 4.669 7.647 5.797v0l-0.01 0.269c-0.236 0.201-0.781 0.667-1.635 1.397-0.853 0.739-1.713 1.566-2.578 2.479v0l-1.619-1.172c0.073-0.089 0.209-0.233 0.406-0.43 0.193-0.192 0.378-0.396 0.555-0.612v0c0.461-0.561 0.716-1.01 0.765-1.347 0.044-0.342-0.13-0.735-0.52-1.179-0.386-0.449-1.106-1.107-2.16-1.973v0c-0.577-0.474-0.988-0.781-1.233-0.921-0.241-0.145-0.44-0.186-0.598-0.122-0.167 0.065-0.393 0.248-0.676 0.551v0l-4.325 4.812 2.64 2.223c0.346 0.284 0.872 0.655 1.577 1.111 0.71 0.451 1.178 0.753 1.405 0.905v0l-0.002 0.275-1.757 1.415c-0.215-0.177-0.626-0.532-1.232-1.065-0.602-0.539-1.247-1.091-1.934-1.655v0c-0.598-0.491-1.319-0.992-2.165-1.503v0l-3.216 3.721c-0.547 0.666-0.837 1.174-0.871 1.525-0.033 0.35 0.186 0.72 0.658 1.107v0c0.341 0.28 0.708 0.555 1.101 0.825 0.388 0.266 0.647 0.453 0.778 0.561v0l-0.035 0.234-1.391 1.229c-0.261-0.249-0.773-0.706-1.537-1.369-0.769-0.667-1.56-1.335-2.373-2.003v0c-0.624-0.513-1.309-1.015-2.057-1.505-0.751-0.486-1.252-0.796-1.501-0.931z" fill="#001f3f" data-fill-palette-color="primary"></path><path d="M230.308 65.294l0.079-0.239 1.23-0.862c0.814 0.841 1.414 1.36 1.802 1.558 0.388 0.197 0.729 0.171 1.025-0.078v0c0.338-0.284 0.637-0.66 0.9-1.129v0l1.812-2.827c-0.337-0.443-1.069-1.335-2.196-2.675v0c-0.52-0.618-1.351-1.48-2.493-2.585v0l-3.115 1.089c-0.615 0.26-0.977 0.436-1.086 0.527v0c-0.338 0.284-0.483 0.606-0.437 0.967 0.046 0.36 0.294 0.808 0.744 1.343v0l1.153 1.371-0.046 0.198-1.365 0.829c-0.158-0.23-0.535-0.742-1.132-1.536-0.592-0.788-1.191-1.543-1.798-2.265v0c-0.572-0.68-1.098-1.285-1.578-1.813-0.475-0.523-0.793-0.88-0.954-1.072v0l1.472-0.906c0.455 0.415 0.931 0.649 1.428 0.702 0.496 0.053 1.18-0.052 2.05-0.314v0l16.881-5.643 2.32 1.92 0.152 0.244c-0.088 0.074-1.36 1.973-3.816 5.696-2.465 3.722-4.449 6.867-5.952 9.434v0c-0.439 0.733-0.641 1.368-0.606 1.906 0.031 0.533 0.321 1.189 0.87 1.968v0l-0.08 0.174-1.283 0.799c-0.179-0.213-0.498-0.614-0.958-1.203-0.464-0.594-0.936-1.177-1.416-1.748v0c-0.734-0.873-1.464-1.677-2.19-2.414-0.727-0.728-1.199-1.199-1.417-1.416zM234.388 55.705l1.828 2.174c0.625 0.743 1.319 1.48 2.085 2.21v0l4.555-7.141-0.19-0.226z" fill="#001f3f" data-fill-palette-color="primary"></path><path d="M238.007 75.303l1.62-0.698c0.616 0.827 1.182 1.298 1.697 1.413 0.515 0.116 1.18-0.064 1.995-0.54v0l11.437-6.618c0.604-0.352 0.962-0.66 1.076-0.923 0.12-0.266 0.054-0.613-0.196-1.041v0l-0.605-0.955 0.109-0.158 1.491-0.576c0.168 0.287 0.484 0.857 0.95 1.709 0.466 0.852 0.986 1.77 1.561 2.754v0c2.341 4.009 4.179 6.908 5.515 8.698v0l-0.118 0.222c-0.291 0.107-0.952 0.348-1.983 0.722-1.037 0.378-2.115 0.846-3.235 1.405v0l-1.161-1.645c0.1-0.058 0.272-0.139 0.518-0.243 0.236-0.107 0.475-0.23 0.715-0.371v0c0.627-0.366 1.014-0.714 1.16-1.042 0.146-0.329 0.096-0.798-0.151-1.409-0.241-0.614-0.768-1.618-1.582-3.013v0c-0.376-0.645-0.655-1.075-0.837-1.292-0.175-0.22-0.348-0.327-0.518-0.322-0.179 0.003-0.455 0.096-0.826 0.282v0l-5.239 2.776 1.684 2.966c0.253 0.434 0.668 1.044 1.246 1.83 0.575 0.796 0.951 1.319 1.128 1.569v0l-0.094 0.244-2.124 0.662c-0.154-0.264-0.447-0.792-0.878-1.585-0.432-0.793-0.901-1.623-1.407-2.491v0c-0.39-0.668-0.893-1.388-1.509-2.16v0c-1.864 0.994-3.528 1.919-4.993 2.774v0c-0.551 0.322-0.909 0.59-1.075 0.804-0.163 0.205-0.195 0.48-0.097 0.823 0.104 0.34 0.36 0.859 0.767 1.556v0c0.91 1.559 1.635 2.633 2.175 3.221 0.531 0.586 1.099 0.887 1.706 0.902 0.61 0.021 1.502-0.201 2.676-0.666v0l1.064 1.5-0.088 0.252c-0.308 0.078-1 0.313-2.076 0.705-1.079 0.386-2.173 0.841-3.283 1.363v0l-0.304-0.117c-0.353-0.658-1.101-2.021-2.245-4.088-1.147-2.073-2.092-3.745-2.835-5.017v0c-0.571-0.979-1.145-1.866-1.72-2.662-0.577-0.787-0.948-1.293-1.111-1.52z" fill="#001f3f" data-fill-palette-color="primary"></path><path d="M248.396 95.027l1.73-0.364c0.436 0.788 0.883 1.269 1.342 1.443 0.459 0.173 1.133 0.1 2.02-0.22v0l12.448-4.433c0.658-0.237 1.066-0.474 1.225-0.712 0.166-0.24 0.165-0.593-0.003-1.059v0l-0.421-1.05 0.121-0.173 1.571-0.296c0.046 0.128 0.174 0.522 0.383 1.182 0.211 0.667 0.515 1.549 0.911 2.648v0c0.207 0.575 0.502 1.273 0.884 2.094 0.389 0.819 0.644 1.355 0.764 1.607v0l-1.706 0.431c-0.336-0.672-0.639-1.122-0.909-1.349-0.276-0.225-0.554-0.316-0.834-0.273-0.282 0.037-0.843 0.163-1.681 0.379v0c-3.593 0.999-7.522 2.268-11.787 3.805v0c-0.651 0.235-1.105 0.467-1.361 0.696-0.259 0.223-0.379 0.53-0.361 0.92 0.027 0.394 0.176 0.968 0.448 1.721v0c0.453 1.258 0.891 2.142 1.313 2.654 0.422 0.511 0.994 0.807 1.715 0.886 0.721 0.079 1.791-0.004 3.211-0.249v0l0.813 1.655-0.185 0.208c-0.365 0.067-1.189 0.223-2.471 0.468-1.284 0.239-2.622 0.52-4.014 0.841v0l-0.309-0.105c-0.191-0.609-0.596-1.903-1.214-3.88-0.625-1.975-1.178-3.629-1.66-4.963v0c-0.377-1.047-0.773-2.005-1.187-2.873-0.42-0.866-0.686-1.412-0.796-1.639z" fill="#001f3f" data-fill-palette-color="primary"></path><path d="M19.77 195.229l-0.153 0.182c-2.235 0.283-4.517 0.683-6.844 1.199v0l-0.297-0.113c-1.686-5.47-2.942-9.402-3.768-11.794v0c-0.657-1.905-1.403-3.651-2.238-5.237v0l1.85-0.38c0.561 1.106 1.139 1.793 1.735 2.061 0.595 0.268 1.448 0.211 2.557-0.171v0l16.228-5.557c0.828-0.286 1.349-0.573 1.565-0.863 0.216-0.29 0.225-0.72 0.028-1.291v0l-0.528-1.282 0.127-0.13 1.796-0.318c0.828 2.65 1.407 4.454 1.738 5.409v0c1.058 3.066 1.912 5.439 2.563 7.117 0.649 1.671 1.281 3.108 1.896 4.31v0l-0.191 0.195c-2.193 0.24-4.431 0.682-6.714 1.326v0l-0.795-1.804 1.682-0.494c0.905-0.312 1.49-0.643 1.757-0.994 0.267-0.35 0.325-0.931 0.175-1.74-0.152-0.816-0.562-2.19-1.228-4.121v0c-0.31-0.898-0.549-1.508-0.718-1.831-0.166-0.316-0.364-0.492-0.592-0.528-0.228-0.036-0.603 0.021-1.125 0.173v0l-7.602 2.278 1.333 3.988c0.348 1.007 1.031 2.53 2.05 4.569v0l-0.139 0.22-2.467 0.248c-0.91-2.888-1.494-4.704-1.75-5.447v0c-0.292-0.847-0.724-1.807-1.296-2.881v0l-7.434 2.393c-0.744 0.257-1.242 0.5-1.492 0.73-0.251 0.23-0.359 0.562-0.324 0.995 0.037 0.44 0.223 1.147 0.559 2.122v0c0.746 2.162 1.38 3.666 1.902 4.513 0.52 0.84 1.154 1.346 1.903 1.519 0.757 0.177 1.916 0.111 3.474-0.198v0z" fill="#001f3f" data-fill-palette-color="primary"></path><path d="M23.745 216.646c4.797-6.349 8.281-11.03 10.452-14.043v0l-0.109-0.171c-1.155 0.612-3.313 1.761-6.472 3.448-3.159 1.687-4.887 2.626-5.183 2.817v0c-0.297 0.19-0.464 0.395-0.503 0.612-0.038 0.218 0.046 0.486 0.251 0.806v0l0.709 1.106-0.059 0.134-1.533 0.645c-0.132-0.206-0.369-0.614-0.712-1.224-0.339-0.605-0.692-1.193-1.059-1.764v0c-0.297-0.463-0.642-0.939-1.036-1.427-0.394-0.489-0.654-0.806-0.78-0.952v0l1.494-0.764c0.455 0.546 0.906 0.854 1.353 0.922 0.447 0.068 1.054-0.079 1.82-0.442v0c1.68-0.812 4.031-1.968 7.051-3.469 3.02-1.501 4.701-2.362 5.044-2.582v0c0.457-0.293 0.68-0.686 0.67-1.179-0.014-0.499-0.276-1.197-0.787-2.095v0l0.105-0.213 1.294-0.491c0.138 0.266 0.397 0.733 0.777 1.4 0.376 0.662 0.755 1.29 1.136 1.884v0c0.326 0.508 0.636 0.967 0.93 1.375 0.294 0.408 0.496 0.673 0.607 0.796v0c-1.688 2.058-3.257 4.011-4.707 5.86-1.456 1.853-2.601 3.349-3.435 4.488-0.843 1.137-1.365 1.851-1.566 2.141v0l0.11 0.171c0.801-0.159 2.668-0.554 5.601-1.185 2.924-0.633 6.196-1.382 9.819-2.245v0c0.111 0.122 0.23 0.296 0.358 0.52 0.128 0.224 0.258 0.439 0.389 0.645v0c0.138 0.266 0.363 0.642 0.675 1.127v0c0.234 0.366 0.598 0.882 1.09 1.55 0.496 0.673 0.829 1.117 0.999 1.331v0l-0.059 0.135-1.318 0.603c-0.608-0.747-1.123-1.211-1.545-1.391-0.422-0.181-0.862-0.125-1.319 0.168v0c-0.457 0.293-1.862 1.307-4.217 3.043-2.348 1.732-4.331 3.229-5.947 4.491v0c-0.961 0.777-1.541 1.363-1.74 1.756-0.203 0.388-0.165 0.799 0.114 1.234v0l0.539 0.766-0.058 0.134-1.534 0.645c-0.117-0.183-0.333-0.544-0.647-1.084-0.318-0.546-0.667-1.116-1.048-1.71v0c-0.381-0.594-0.849-1.249-1.405-1.965-0.552-0.71-0.843-1.088-0.873-1.134v0l1.494-0.764c0.455 0.546 0.866 0.879 1.233 0.999 0.367 0.119 0.756 0.047 1.167-0.217v0c0.411-0.264 1.974-1.435 4.688-3.514 2.714-2.079 4.556-3.494 5.525-4.244v0l-0.11-0.172c-4.33 0.866-9.96 2.05-16.89 3.551v0z" fill="#001f3f" data-fill-palette-color="primary"></path><path d="M44.911 241.918l0.053-0.231 1.103-0.973c0.888 0.731 1.53 1.174 1.927 1.33 0.397 0.155 0.727 0.096 0.99-0.178v0c0.301-0.313 0.552-0.712 0.754-1.196v0l1.468-2.952c-0.373-0.396-1.178-1.189-2.416-2.378v0c-0.568-0.545-1.468-1.298-2.701-2.257v0l-2.917 1.389c-0.57 0.318-0.901 0.527-0.996 0.625v0c-0.301 0.313-0.41 0.642-0.326 0.985 0.084 0.344 0.37 0.751 0.86 1.222v0l1.269 1.22-0.031 0.209-1.249 0.947c-0.177-0.208-0.596-0.667-1.258-1.379-0.657-0.707-1.321-1.382-1.992-2.027v0c-0.626-0.602-1.201-1.135-1.723-1.6-0.518-0.46-0.865-0.775-1.041-0.944v0l1.34-1.042c0.487 0.355 0.978 0.535 1.472 0.54 0.49 0 1.144-0.171 1.962-0.514v0l15.868-7.255 2.459 1.628 0.177 0.227c-0.075 0.078-1.118 2.06-3.129 5.944-2.016 3.88-3.623 7.154-4.823 9.822v0c-0.35 0.756-0.481 1.392-0.394 1.909 0.092 0.521 0.442 1.131 1.051 1.829v0l-0.061 0.181-1.163 0.916c-0.196-0.188-0.551-0.548-1.065-1.08-0.51-0.527-1.029-1.045-1.557-1.553v0c-0.807-0.776-1.601-1.483-2.382-2.12-0.785-0.642-1.295-1.057-1.529-1.244zM47.892 232.147l2.003 1.926c0.69 0.663 1.444 1.313 2.264 1.949v0l3.696-7.446-0.205-0.197z" fill="#001f3f" data-fill-palette-color="primary"></path><path d="M74.807 256.968l6.372-9.942c0.486-0.753 0.421-1.328-0.195-1.725v0l-1.026-0.663 0.02-0.181 1.107-1.188c0.191 0.155 0.563 0.429 1.119 0.82 0.555 0.391 1.132 0.78 1.731 1.166v0c0.502 0.324 1.087 0.662 1.756 1.014 0.664 0.348 1.094 0.57 1.292 0.664v0l-1.048 1.323c-0.72-0.336-1.31-0.467-1.771-0.392-0.454 0.078-0.862 0.372-1.223 0.882v0l-9.943 14.494-1.586-0.491c-0.118-4.584-0.304-9.111-0.559-13.582-0.257-4.48-0.401-6.697-0.43-6.652v0l-0.171-0.11-6.818 10.332c-0.28 0.433-0.403 0.774-0.369 1.022 0.039 0.252 0.219 0.481 0.538 0.686v0l1.39 0.85 0.036 0.169-1.162 1.2c-0.191-0.155-0.581-0.44-1.171-0.853-0.595-0.417-1.224-0.839-1.884-1.266v0c-0.524-0.339-1.104-0.673-1.74-1.002-0.63-0.326-1.043-0.536-1.24-0.631v0l1.076-1.292c0.618 0.294 1.148 0.398 1.592 0.312 0.449-0.082 0.854-0.378 1.215-0.887v0l7.694-11.087c0.368-0.57 0.457-1.07 0.266-1.501-0.196-0.434-0.725-1.01-1.586-1.727v0l-0.027-0.26 0.996-1.017c0.168 0.141 0.497 0.394 0.988 0.76 0.497 0.369 1.007 0.723 1.532 1.062v0c0.502 0.324 0.954 0.6 1.356 0.827 0.408 0.231 0.676 0.372 0.805 0.423v0c0.093 3.922 0.259 7.967 0.499 12.137 0.236 4.176 0.368 6.24 0.398 6.195v0z" fill="#001f3f" data-fill-palette-color="primary"></path><path d="M92.438 271.364c-1.736-0.646-3.134-1.6-4.192-2.862-1.056-1.269-1.686-2.738-1.89-4.407-0.202-1.675 0.038-3.432 0.722-5.271v0c0.74-1.991 1.859-3.617 3.356-4.877 1.503-1.258 3.207-2.051 5.109-2.379 1.907-0.319 3.831-0.118 5.771 0.604v0c1.762 0.655 3.178 1.617 4.249 2.884 1.069 1.274 1.713 2.744 1.933 4.411 0.228 1.663 0.001 3.414-0.683 5.253v0c-0.74 1.991-1.862 3.615-3.366 4.874-1.497 1.261-3.215 2.055-5.155 2.383-1.937 0.322-3.889 0.118-5.854-0.613zM94.039 269.863c1.864 0.693 3.62 0.586 5.268-0.321 1.644-0.916 2.879-2.484 3.705-4.705v0c0.627-1.686 0.905-3.269 0.833-4.751-0.074-1.476-0.488-2.748-1.242-3.817-0.75-1.061-1.789-1.838-3.118-2.333v0c-1.813-0.674-3.522-0.557-5.127 0.352-1.601 0.918-2.815 2.487-3.64 4.706v0c-0.627 1.686-0.911 3.267-0.852 4.745 0.059 1.477 0.451 2.749 1.177 3.815 0.719 1.064 1.718 1.834 2.996 2.309z" fill="#001f3f" data-fill-palette-color="primary"></path><path d="M112.004 277.162l0.474-1.656c1.01 0.046 1.723-0.09 2.138-0.407 0.409-0.319 0.687-0.934 0.834-1.845v0l2.106-12.787c0.108-0.67 0.1-1.132-0.023-1.385-0.124-0.254-0.431-0.42-0.92-0.499v0l-1.092-0.135-0.054-0.174 0.489-1.499c0.322 0.052 0.953 0.168 1.893 0.347 0.934 0.178 1.953 0.357 3.059 0.535v0c4.489 0.725 7.828 1.14 10.017 1.247v0l0.088 0.22c-0.101 0.286-0.331 0.94-0.688 1.962-0.356 1.015-0.673 2.122-0.949 3.321v0l-1.965-0.152c0.017-0.107 0.06-0.286 0.128-0.536 0.068-0.25 0.123-0.509 0.167-0.778v0c0.114-0.703 0.093-1.212-0.063-1.525-0.156-0.314-0.541-0.569-1.156-0.764-0.621-0.197-1.709-0.42-3.263-0.672v0c-0.73-0.118-1.233-0.178-1.507-0.181-0.274-0.003-0.464 0.063-0.568 0.197-0.104 0.134-0.202 0.4-0.294 0.798v0l-1.166 5.689 3.3 0.574c0.482 0.078 1.203 0.146 2.163 0.205 0.953 0.058 1.579 0.097 1.878 0.118v0l0.128 0.227-0.821 2.022c-0.295-0.048-0.875-0.155-1.742-0.322-0.873-0.169-1.792-0.331-2.757-0.487v0c-0.757-0.122-1.615-0.192-2.575-0.209v0c-0.41 2.03-0.748 3.866-1.013 5.507v0c-0.1 0.616-0.122 1.053-0.067 1.309 0.055 0.256 0.243 0.452 0.565 0.587 0.322 0.134 0.875 0.265 1.659 0.391v0c1.742 0.281 3.004 0.403 3.787 0.364 0.776-0.04 1.359-0.282 1.747-0.728 0.395-0.445 0.784-1.259 1.167-2.441v0l1.795 0.125 0.128 0.227c-0.128 0.282-0.381 0.953-0.758 2.012-0.376 1.053-0.714 2.164-1.012 3.332v0l-0.274 0.162c-0.719-0.144-2.22-0.427-4.502-0.851-2.276-0.422-4.127-0.749-5.555-0.979v0c-1.099-0.177-2.128-0.295-3.088-0.355-0.953-0.058-1.566-0.095-1.838-0.111z" fill="#001f3f" data-fill-palette-color="primary"></path><path d="M138.128 280l0.205-1.715c0.865-0.162 1.453-0.43 1.764-0.804 0.304-0.373 0.445-1.022 0.424-1.944v0l-0.255-12.957c-0.015-0.678-0.107-1.131-0.275-1.358-0.168-0.227-0.5-0.335-0.995-0.323v0l-1.099 0.065-0.125-0.16 0.208-1.562c0.136-0.003 0.543 0.001 1.222 0.013 0.686 0.011 1.599 0.004 2.739-0.022v0c0.604-0.014 1.346-0.071 2.226-0.173 0.88-0.102 1.459-0.169 1.736-0.203v0l-0.123 1.724c-0.738 0.098-1.254 0.239-1.548 0.422-0.294 0.183-0.466 0.411-0.514 0.684-0.048 0.273-0.103 0.834-0.166 1.684v0c-0.188 3.65-0.232 7.696-0.13 12.14v0c0.015 0.678 0.088 1.172 0.217 1.482 0.129 0.309 0.378 0.514 0.747 0.614 0.369 0.1 0.95 0.141 1.744 0.123v0c1.303-0.03 2.26-0.16 2.873-0.391 0.606-0.231 1.057-0.669 1.355-1.314 0.298-0.645 0.553-1.666 0.765-3.062v0l1.797-0.245 0.127 0.242c-0.046 0.354-0.157 1.168-0.331 2.441-0.175 1.267-0.328 2.597-0.459 3.992v0l-0.198 0.248c-0.632-0.013-1.963-0.037-3.993-0.071-2.03-0.035-3.741-0.037-5.132-0.005v0c-1.086 0.025-2.099 0.095-3.039 0.211-0.934 0.116-1.523 0.191-1.767 0.224z" fill="#001f3f" data-fill-palette-color="primary"></path><path d="M191.266 270.545c-0.647 0.205-1.447 0.095-2.4-0.329-0.947-0.426-1.912-1.113-2.895-2.062v0l-6.569-6.237-3.231 1.024 1.722 5.84c0.314 0.99 0.603 1.678 0.868 2.064 0.265 0.386 0.601 0.593 1.008 0.62 0.407 0.028 1.054-0.099 1.94-0.38v0l0.127 0.131 0.171 1.75c-0.319 0.073-0.951 0.244-1.898 0.516-0.94 0.269-1.918 0.565-2.933 0.887v0c-0.906 0.287-1.707 0.555-2.404 0.805-0.69 0.247-1.148 0.421-1.373 0.52v0l-0.207-1.867c0.795-0.366 1.374-0.706 1.738-1.021 0.357-0.312 0.549-0.694 0.577-1.144 0.028-0.45-0.082-1.067-0.33-1.849v0l-5.143-16.364c-0.264-0.835-0.539-1.363-0.823-1.586-0.284-0.223-0.714-0.243-1.29-0.061v0c-0.259 0.082-0.513 0.177-0.764 0.284-0.251 0.108-0.428 0.178-0.531 0.211v0l-0.127-0.13-0.273-1.804c0.319-0.073 0.912-0.232 1.781-0.479 0.862-0.245 1.723-0.503 2.584-0.776v0c0.88-0.279 1.802-0.592 2.767-0.941 0.958-0.346 1.614-0.59 1.968-0.73v0c2.42-0.767 4.501-0.825 6.245-0.175 1.748 0.642 2.923 1.911 3.524 3.807v0c0.494 1.559 0.449 3.147-0.136 4.762-0.591 1.618-1.664 3.129-3.219 4.534v0l6.436 5.414c1.146 1.011 2.151 1.643 3.014 1.896 0.872 0.258 1.825 0.222 2.86-0.106v0l0.205 0.107 0.185 1.393zM179.69 259.861c0.025 0.078 0.362-0.218 1.012-0.886 0.645-0.66 1.146-1.516 1.503-2.57 0.348-1.057 0.309-2.259-0.117-3.604v0c-1.087-3.429-4.007-4.39-8.763-2.883v0c-0.259 0.082-0.415 0.196-0.468 0.341-0.054 0.145-0.036 0.403 0.053 0.773v0c1.026 4.046 1.908 7.28 2.647 9.701v0z" fill="#001f3f" data-fill-palette-color="primary"></path><path d="M210.089 260.657l-0.207-0.116-0.624-1.332c0.951-0.648 1.556-1.14 1.816-1.477 0.26-0.337 0.296-0.671 0.107-1.001v0c-0.216-0.377-0.528-0.73-0.937-1.058v0l-2.422-2.237c-0.484 0.247-1.471 0.798-2.96 1.653v0c-0.683 0.392-1.657 1.045-2.924 1.96v0l0.516 3.19c0.146 0.636 0.253 1.013 0.321 1.131v0c0.216 0.377 0.501 0.573 0.855 0.589 0.354 0.016 0.825-0.145 1.413-0.483v0l1.527-0.877 0.192 0.09 0.559 1.463c-0.249 0.112-0.808 0.385-1.677 0.822-0.863 0.433-1.697 0.881-2.503 1.343v0c-0.753 0.432-1.426 0.835-2.019 1.206-0.587 0.368-0.986 0.613-1.198 0.735v0l-0.625-1.578c0.477-0.368 0.788-0.789 0.931-1.262 0.137-0.47 0.156-1.146 0.056-2.028v0l-2.517-17.265 2.253-1.904 0.267-0.107c0.054 0.094 1.664 1.651 4.829 4.67 3.159 3.022 5.852 5.483 8.077 7.383v0c0.627 0.548 1.201 0.852 1.721 0.913 0.526 0.058 1.21-0.108 2.051-0.497v0l0.157 0.11 0.553 1.373c-0.235 0.135-0.681 0.375-1.336 0.719-0.649 0.341-1.292 0.695-1.927 1.06v0c-0.971 0.558-1.872 1.122-2.702 1.692-0.836 0.574-1.377 0.947-1.623 1.12zM201.545 255.056l2.41-1.383c0.83-0.476 1.665-1.019 2.506-1.627v0l-6.112-5.635-0.247 0.142z" fill="#001f3f" data-fill-palette-color="primary"></path><path d="M224.02 251.777l-0.903-1.419c0.672-0.807 1.025-1.462 1.059-1.965 0.029-0.499-0.249-1.104-0.836-1.817v0l-8.2-10.034c-0.431-0.524-0.783-0.824-1.055-0.898-0.272-0.075-0.6 0.045-0.983 0.36v0l-0.823 0.729-0.166-0.074-0.801-1.358c0.252-0.207 0.755-0.604 1.512-1.19 0.751-0.583 1.559-1.23 2.424-1.941v0c3.26-2.681 5.601-4.765 7.023-6.252v0l0.256 0.054c0.148 0.265 0.495 0.88 1.042 1.845 0.543 0.959 1.173 1.939 1.891 2.939v0l-1.44 1.343c-0.069-0.084-0.179-0.239-0.331-0.467-0.151-0.227-0.313-0.445-0.486-0.654v0c-0.453-0.55-0.838-0.88-1.155-0.988-0.317-0.108-0.726-0.018-1.226 0.271-0.506 0.293-1.272 0.862-2.3 1.707v0c-0.571 0.47-0.949 0.807-1.133 1.011-0.184 0.204-0.26 0.389-0.228 0.556 0.032 0.167 0.167 0.416 0.405 0.748v0l3.802 5.071 2.644-2.121c0.335-0.276 0.79-0.711 1.364-1.307 0.569-0.591 0.949-0.983 1.141-1.176v0l0.255 0.054 1.032 1.959c-0.21 0.172-0.63 0.5-1.26 0.984-0.625 0.479-1.273 0.995-1.945 1.546v0c-0.592 0.487-1.212 1.085-1.859 1.793v0l2.97 3.804c0.535 0.65 0.966 1.025 1.294 1.124 0.328 0.099 0.722-0.041 1.183-0.419v0c0.335-0.276 0.671-0.578 1.007-0.908 0.331-0.325 0.559-0.539 0.685-0.642v0l0.223 0.08 0.925 1.573c-0.29 0.203-0.829 0.611-1.616 1.223-0.782 0.608-1.575 1.242-2.377 1.902v0c-0.608 0.5-1.22 1.065-1.836 1.695-0.611 0.625-1.003 1.045-1.178 1.259z" fill="#001f3f" data-fill-palette-color="primary"></path><path d="M246.923 229.257l-0.235-0.037-1.044-1.036c0.67-0.935 1.069-1.606 1.198-2.012 0.128-0.406 0.047-0.731-0.245-0.976v0c-0.333-0.279-0.747-0.503-1.243-0.672v0l-3.044-1.266c-0.37 0.398-1.107 1.255-2.211 2.57v0c-0.506 0.603-1.197 1.552-2.071 2.847v0l1.582 2.817c0.356 0.547 0.586 0.864 0.69 0.951v0c0.333 0.279 0.668 0.366 1.005 0.259 0.338-0.106 0.724-0.42 1.161-0.939v0l1.133-1.349 0.211 0.018 1.028 1.182c-0.195 0.19-0.626 0.64-1.292 1.348-0.661 0.703-1.291 1.411-1.888 2.123v0c-0.559 0.665-1.052 1.274-1.481 1.827-0.424 0.548-0.715 0.915-0.872 1.102v0l-1.129-1.267c0.322-0.51 0.468-1.011 0.439-1.505-0.033-0.488-0.248-1.13-0.644-1.924v0l-8.304-15.345 1.46-2.562 0.215-0.192c0.083 0.07 2.13 0.978 6.14 2.723 4.006 1.751 7.381 3.135 10.124 4.153v0c0.777 0.298 1.421 0.387 1.931 0.265 0.514-0.127 1.099-0.517 1.754-1.171v0l0.185 0.049 0.992 1.098c-0.175 0.208-0.51 0.586-1.006 1.135-0.492 0.544-0.974 1.096-1.446 1.658v0c-0.72 0.858-1.372 1.697-1.955 2.519-0.588 0.827-0.967 1.363-1.138 1.609zM236.973 226.939l1.787-2.129c0.615-0.733 1.213-1.529 1.794-2.389v0l-7.677-3.189-0.184 0.219z" fill="#001f3f" data-fill-palette-color="primary"></path><path d="M256.927 216.064l-1.375-1.037c0.406-0.926 0.535-1.64 0.387-2.142-0.151-0.496-0.625-0.976-1.423-1.441v0l-11.179-6.554c-0.587-0.341-1.02-0.5-1.302-0.475-0.281 0.025-0.547 0.251-0.796 0.679v0l-0.518 0.971-0.181-0.012-1.223-0.994c0.164-0.282 0.498-0.829 1.003-1.643 0.501-0.807 1.034-1.695 1.597-2.662v0c2.287-3.93 3.873-6.897 4.758-8.903v0l0.237-0.003c0.231 0.197 0.759 0.646 1.584 1.346 0.819 0.697 1.739 1.389 2.76 2.077v0l-0.847 1.78c-0.094-0.055-0.245-0.159-0.455-0.311-0.209-0.153-0.431-0.298-0.666-0.435v0c-0.616-0.358-1.098-0.521-1.446-0.489-0.349 0.033-0.725 0.301-1.128 0.804-0.406 0.509-1.006 1.444-1.798 2.805v0c-0.372 0.639-0.609 1.086-0.71 1.342-0.101 0.255-0.108 0.455-0.02 0.601 0.088 0.145 0.301 0.332 0.639 0.56v0l4.892 3.131 1.72-2.874c0.246-0.422 0.568-1.071 0.968-1.946 0.396-0.869 0.657-1.439 0.784-1.711v0l0.258-0.038 1.592 1.492c-0.15 0.258-0.459 0.762-0.926 1.511-0.471 0.755-0.952 1.554-1.443 2.399v0c-0.386 0.663-0.759 1.439-1.12 2.328v0c1.748 1.112 3.34 2.086 4.777 2.922v0c0.54 0.314 0.939 0.492 1.198 0.532 0.259 0.041 0.509-0.065 0.75-0.317 0.241-0.252 0.561-0.722 0.961-1.408v0c0.888-1.525 1.454-2.66 1.699-3.404 0.242-0.739 0.224-1.369-0.053-1.892-0.274-0.528-0.893-1.184-1.859-1.966v0l0.76-1.63 0.258-0.038c0.217 0.221 0.752 0.697 1.606 1.429 0.848 0.729 1.763 1.443 2.747 2.141v0l0.053 0.313c-0.392 0.62-1.196 1.919-2.41 3.898-1.211 1.973-2.18 3.584-2.908 4.833v0c-0.56 0.962-1.039 1.88-1.438 2.755-0.396 0.869-0.65 1.427-0.764 1.676z" fill="#001f3f" data-fill-palette-color="primary"></path><path d="M268.951 192.698l-1.527-0.807c0.159-0.866 0.12-1.511-0.118-1.934-0.24-0.418-0.794-0.782-1.662-1.094v0l-12.185-4.411c-0.639-0.229-1.094-0.306-1.367-0.231-0.272 0.075-0.492 0.346-0.659 0.813v0l-0.332 1.049-0.195 0.06-1.384-0.756c0.046-0.128 0.196-0.506 0.451-1.136 0.257-0.636 0.578-1.491 0.962-2.564v0c0.204-0.569 0.416-1.282 0.638-2.14 0.221-0.858 0.366-1.422 0.434-1.693v0l1.564 0.734c-0.173 0.724-0.227 1.256-0.161 1.596 0.065 0.341 0.217 0.582 0.454 0.725 0.237 0.143 0.741 0.396 1.512 0.759v0c3.339 1.485 7.101 2.978 11.285 4.478v0c0.639 0.229 1.126 0.339 1.461 0.329 0.335-0.01 0.616-0.169 0.841-0.477 0.226-0.308 0.473-0.836 0.741-1.584v0c0.44-1.227 0.662-2.167 0.666-2.821 0.002-0.648-0.245-1.227-0.741-1.736-0.495-0.509-1.356-1.113-2.583-1.813v0l0.416-1.765 0.272-0.033c0.314 0.17 1.034 0.565 2.159 1.185 1.12 0.618 2.307 1.238 3.561 1.861v0l0.162 0.274c-0.239 0.585-0.739 1.819-1.5 3.702-0.761 1.883-1.377 3.479-1.847 4.788v0c-0.366 1.022-0.664 1.993-0.893 2.913-0.227 0.914-0.368 1.49-0.425 1.729z" fill="#001f3f" data-fill-palette-color="primary"></path><path d="M1.402 140.34c0-5.707 4.626-10.333 10.333-10.332 5.707 0 10.333 4.626 10.332 10.332 0 5.707-4.626 10.333-10.332 10.333-5.707 0-10.333-4.626-10.333-10.333z" fill="#001f3f" data-fill-palette-color="primary"></path><path d="M257.933 140.34c0-5.707 4.626-10.333 10.332-10.332 5.707 0 10.333 4.626 10.333 10.332 0 5.707-4.626 10.333-10.333 10.333-5.707 0-10.333-4.626-10.332-10.333z" fill="#001f3f" data-fill-palette-color="primary"></path></g><g id="text-1"></g></svg></g></svg></g></svg></g><g></g></svg></g><defs></defs></svg><rect width="280" height="280" fill="none" stroke="none" visibility="hidden"></rect></g></svg></g></svg>